<svg xmlns="http://www.w3.org/2000/svg" viewBox="0 0 160 100"><defs><style>.cls-1{fill:#f6f4f2;}</style></defs><title>Glorynest_fulllogo_2</title><g id="Layer_2" data-name="Layer 2"><g id="Layer_1-2" data-name="Layer 1"><path class="cls-1" d="M40.28,62.52a2.28,2.28,0,0,0-.4.61c-.1.2-.2.3.1.41a3.47,3.47,0,0,0,1,.1c1.41-.21,2.92-.21,4.33-.31l2.32.1a18.06,18.06,0,0,0,2.41.31,5.75,5.75,0,0,0,1.31-.1c.2,0,1.31-.31,1.31-.51a.35.35,0,0,0,.1-.2v-.2a.55.55,0,0,0-.3-.51,12.47,12.47,0,0,1-1.71-1.62l-.5-.5a4.13,4.13,0,0,1-.71-.81,6.7,6.7,0,0,0-2.62-1.82,1.43,1.43,0,0,0-1.61.51,15.34,15.34,0,0,1-1.21,1.21A20.37,20.37,0,0,0,40.28,62.52ZM46.63,54c.2.41.7.21,1.11,0a23.14,23.14,0,0,1,4.53-2A21,21,0,0,1,55.8,50.8a.76.76,0,0,0,.5-.2c.1,0,.1-.1.2-.21.2-.5-.7-1.41-1.11-1.71a10.48,10.48,0,0,0-2.21-1.52c-.81-.51-1.62-.91-2.32-1.31s-1.41-.91-2.12-1.32c-.4-.2-.8-.4-1.3-.61-.31-.1-1-.3-1.21-.1s-.1.51-.1.71c.1.41.1.91.2,1.32.1.91.1,1.82.2,2.62V51.2C46.53,52,46.23,53.33,46.63,54Zm6.75,8.09a.22.22,0,0,0,.2-.2,6.33,6.33,0,0,0,1.21-2.63c.2-.4.3-.81.5-1.21l1-3.14c.2-.4.3-.81.5-1.21.61-1.21.81-2.63-.1-2.73a2,2,0,0,0-1,.3l-3.72,2c-.71.4-5.34,2.22-3.63,3.53a13.26,13.26,0,0,1,2.72,2.63c.61.81,1,2,1.92,2.53A.6.6,0,0,0,53.38,62.12ZM60.79,5.74a51.55,51.55,0,0,1,24.89-3.5,48.39,48.39,0,0,1,23.48,9.2A50.32,50.32,0,0,1,124.71,30H125a51.6,51.6,0,0,0-15.24-19.46A49.33,49.33,0,0,0,85.88.55,47.89,47.89,0,0,0,60,3.74,46.89,46.89,0,0,0,40,20h.51A54.24,54.24,0,0,1,60.79,5.74ZM45.52,45.34a2.08,2.08,0,0,0,0-1.11c-.1-.51-.5-.51-.8-.41A7.07,7.07,0,0,0,41.9,45c-.91.6-1.62,1.31-2.52,1.82-.71.5-1.51.81-2.32,1.41a4.26,4.26,0,0,0-1.61,2.12v.21c.1.1.2.2.3.2a23.39,23.39,0,0,1,6.85,2.73,7.74,7.74,0,0,1,1.21.81c.2.1.4.3.6.2s.1-.1.2-.1a2.85,2.85,0,0,0,.31-2.23,17.36,17.36,0,0,1,.3-4.54C45.32,46.86,45.42,46.15,45.52,45.34ZM125,70.1A53.19,53.19,0,0,1,107.17,90,49.42,49.42,0,0,1,80.66,98.4a47.85,47.85,0,0,1-26.92-7.67A50.13,50.13,0,0,1,35.61,70.1h-.2A49.72,49.72,0,0,0,80.66,100a47.24,47.24,0,0,0,27.6-8.37A47.72,47.72,0,0,0,125.41,70H125Zm34.41-15.26a18.35,18.35,0,0,1-4,5.59,6.89,6.89,0,0,1-4.61,2,2.17,2.17,0,0,1-1.89-.81,4.73,4.73,0,0,1-.59-2.7,16.91,16.91,0,0,1,.72-4.78,41.68,41.68,0,0,1,1.71-4.74h.63c1.11,0,2.33-.09,3.65-.18s2.8-.21,4.45-.36v-1c-1.11.12-2.2.19-3.28.22s-2.18,0-3.29,0h-1.57c.87-1.8,1.76-3.47,2.67-5s1.69-2.91,2.32-4a6.17,6.17,0,0,0,.95-2.52,1,1,0,0,0-.34-.81,1.12,1.12,0,0,0-.7-.27,2.66,2.66,0,0,0-1.69,1,17.89,17.89,0,0,0-2,2.81c-.72,1.19-1.44,2.52-2.16,4s-1.4,3.06-2,4.67l-1.08-.09-1-.09v1a4.79,4.79,0,0,0,.81.2l.81.16s-.87,2.31-1,2.52a41.06,41.06,0,0,1-2.41,4.89,8,8,0,0,1-1.67,1.91A6.8,6.8,0,0,1,139.93,60c.06-.3.12-.63.16-1a7.83,7.83,0,0,0,.07-1.08,12.87,12.87,0,0,0-.61-4c-.4-1.27-.81-2.49-1.21-3.64a9.51,9.51,0,0,1-.61-3.17,4.17,4.17,0,0,1,.13-1.16,2.7,2.7,0,0,0,.14-.72.8.8,0,0,0-.86-.68,1.64,1.64,0,0,0-1.26.72,3.9,3.9,0,0,0-.58,2.43v.49a21.18,21.18,0,0,1-2,3.44,31,31,0,0,1-2.41,2.94,1.82,1.82,0,0,1-.7.4A5.65,5.65,0,0,0,128,56.7c-.66.73-1.36,1.41-2,2.12a16.06,16.06,0,0,1-3.54,2.85,7.59,7.59,0,0,1-3.82,1.08,4,4,0,0,1-1.82-.36,2.72,2.72,0,0,1-1.08-1,3.24,3.24,0,0,1-.5-1.21,7.18,7.18,0,0,1-.11-1.17c0-.24,0-.47,0-.69a3.54,3.54,0,0,1,.12-.7,15.91,15.91,0,0,0,3.93-1,16.71,16.71,0,0,0,3.63-1.9,10.42,10.42,0,0,0,2.65-2.65,5.66,5.66,0,0,0,1-3.19,2.46,2.46,0,0,0-.92-2.27,3.77,3.77,0,0,0-2-.56,8,8,0,0,0-4.07,1.21,14.87,14.87,0,0,0-3.73,3.19c-.35.41-.68.83-1,1.24-2,2.95-3.49,6.59-6.17,9a3.41,3.41,0,0,1-2.27,1,1.28,1.28,0,0,1-.87-.33,1.6,1.6,0,0,1-.39-1.24,5.28,5.28,0,0,1,.48-2.16c.31-.71.62-1.46.92-2.24a7.06,7.06,0,0,0,.45-2.56,5.08,5.08,0,0,0-.83-2.81,3,3,0,0,0-2.68-1.28,5.84,5.84,0,0,0-3.26,1.1A16.14,16.14,0,0,0,97,53.07a32,32,0,0,0-2.66,3.43c.36-1.14.66-2.19.88-3.16a10.49,10.49,0,0,0,.34-2.14c0-.81-.45-1.21-1.35-1.21a2.72,2.72,0,0,0-1.28.31,2.51,2.51,0,0,0-.88.68,45.12,45.12,0,0,1-2.45,5.87,13.25,13.25,0,0,1-6.5,5.73,61.53,61.53,0,0,0,3.52-12.47,3.25,3.25,0,0,0-2,0c-1,.45-1.28,1.72-1.58,2.79a11.57,11.57,0,0,1-4.9,6.57c-.75.48-1.8.84-2.45.24A2.08,2.08,0,0,1,75.23,58a19.65,19.65,0,0,1,2.36-7.33,2.18,2.18,0,0,0,.32-1.07c-.06-.92-1.3-1.35-2.13-1a4.14,4.14,0,0,0-1.73,2.08c-1.63,3.24-3.16,6.67-5.89,9.06a7.56,7.56,0,0,1-3.64,1.89,1.64,1.64,0,0,1-1-.1c-.64-.34-.66-1.25-.49-1.95a29.25,29.25,0,0,1,1.51-3.85,6.07,6.07,0,0,0,.43-4c-.56-1.75-2.26-2.83-3.77-3.89a1.66,1.66,0,0,1-.69-.75c-.32-.91.93-2,.36-2.76a1,1,0,0,0-1.32-.12,2.74,2.74,0,0,0-.87,1.16,3,3,0,0,0-.43,2c.3,1.3,2,1.68,2.87,2.64,1.08,1.13,1,3,.5,4.42s-1.41,2.81-1.82,4.32-.16,3.38,1.14,4.24a3.75,3.75,0,0,0,2.33.48,9,9,0,0,0,5.44-2.61,20.92,20.92,0,0,0,3.63-5c-.34,1.43-.6,3,.14,4.3a3.73,3.73,0,0,0,3.61,1.65,6.17,6.17,0,0,0,3.63-1.94,17.89,17.89,0,0,0,2.43-3.41,55.29,55.29,0,0,1-1.87,6.69,3,3,0,0,1-.6,1.13,3,3,0,0,1-1,.58,22.36,22.36,0,0,0-5.39,3.25,6.54,6.54,0,0,0-2.14,2.91A3.14,3.14,0,0,0,72,74.4a3.08,3.08,0,0,0,2.87.41,6.33,6.33,0,0,0,2.48-1.68c2.24-2.31,3.52-5.35,4.87-8.27a3.06,3.06,0,0,1,.47-.8,3.38,3.38,0,0,1,1-.61c3.35-1.63,6.33-4.32,7.46-8l.16-.19c-.24.81-.5,1.61-.79,2.37-.42,1.11-.78,2-1.1,2.83a6.85,6.85,0,0,0-.47,1.39,2.46,2.46,0,0,0,1.1.81,4,4,0,0,0,1.46.27c.6-1,1.29-2.1,2.07-3.32s1.62-2.43,2.5-3.6a15.86,15.86,0,0,1,2.77-2.87,4.6,4.6,0,0,1,2.83-1.12,1.75,1.75,0,0,1,1.22.45,2.09,2.09,0,0,1,.49,1.61,7.38,7.38,0,0,1-.31,2.07c-.21.72-.43,1.42-.65,2.11a6.1,6.1,0,0,0-.34,1.93,2.85,2.85,0,0,0,.83,2.13,3.37,3.37,0,0,0,2.5.83,5.15,5.15,0,0,0,3.12-1,11.19,11.19,0,0,0,2.61-2.76,16.19,16.19,0,0,0,1-1.67A8.87,8.87,0,0,0,112,59a5.31,5.31,0,0,0,1.44,3.78,5.57,5.57,0,0,0,4.23,1.52,10.07,10.07,0,0,0,4.52-1.1,14.37,14.37,0,0,0,4.11-3.1c.66-.69,1.16-1.2,1.64-1.76,0,.1,0,.2,0,.3a7.54,7.54,0,0,0,.54,2.77,5.12,5.12,0,0,0,1.83,2.29,5.8,5.8,0,0,0,3.44.92,7,7,0,0,0,3.55-.9,5.23,5.23,0,0,0,2.3-2.79,8,8,0,0,0,3.76-1.73,8.29,8.29,0,0,0,2.54-3.84l0,0a19.78,19.78,0,0,0-.66,4.55,4.71,4.71,0,0,0,1.1,3.39,4,4,0,0,0,3,1.14,8,8,0,0,0,4.11-1.19,13.75,13.75,0,0,0,3.67-3.25A20.44,20.44,0,0,0,160,55.29Zm-42.48-1.41a19.94,19.94,0,0,1,2-2.86,11.06,11.06,0,0,1,2.3-2.09,4.09,4.09,0,0,1,2.22-.78.88.88,0,0,1,.72.22,1.15,1.15,0,0,1,.18.72,4.56,4.56,0,0,1-.9,2.67,10.33,10.33,0,0,1-2.29,2.34,20.11,20.11,0,0,1-2.88,1.82,13.29,13.29,0,0,1-2.7,1.08A13.65,13.65,0,0,1,116.94,53.43Zm-41,18.22c-1,1.18-1.82,1.78-2.3,1.78a.87.87,0,0,1-.83-.46,1.71,1.71,0,0,1-.25-.85,3.78,3.78,0,0,1,1-2.48A10.61,10.61,0,0,1,76,67.54c1-.64,2.12-1.26,3.27-1.86A22.63,22.63,0,0,1,75.91,71.65Zm59.34-9.15a3.89,3.89,0,0,1-1.53.38,3,3,0,0,1-2.65-1.35,5,5,0,0,1-.95-2.92c0-.92.3-1.4.9-1.43a9.31,9.31,0,0,0,2.21,2.17,8.05,8.05,0,0,0,3.33,1.46A2.68,2.68,0,0,1,135.25,62.5ZM137,59a7.43,7.43,0,0,1-.13.88,7.63,7.63,0,0,1-3.38-1.67,9.12,9.12,0,0,1-2.11-2.56,20,20,0,0,0,2.16-2.6q1.13-1.58,2.07-3.15c.27,1.26.58,2.58.92,4A16.64,16.64,0,0,1,137,58C137,58.39,137,58.73,137,59ZM21.55,30.72A5.12,5.12,0,0,0,18.67,30a10.9,10.9,0,0,0-5.28,1.48,21,21,0,0,0-5.07,4,31.46,31.46,0,0,0-4.27,5.75,31.88,31.88,0,0,0-3,6.78A24,24,0,0,0,0,55a14.18,14.18,0,0,0,1.17,6,9,9,0,0,0,3.15,3.84A7.78,7.78,0,0,0,8.73,66.2a8.15,8.15,0,0,0,4.7-1.43,16.19,16.19,0,0,0,3.71-3.55,4.8,4.8,0,0,0-.18.85,7.32,7.32,0,0,0,0,.81,4.14,4.14,0,0,0,.25,1.48A2.68,2.68,0,0,0,18,65.53a4.37,4.37,0,0,0,1.51.76c0-.71-.06-1.37-.09-2s-.05-1.18-.05-1.77,0-1.22.09-1.87a15.84,15.84,0,0,1,.39-2.2c.19-.82.47-1.79.83-2.9s.81-2.44,1.35-4l.36-1.4c-.72-.21-1.53-.48-2.43-.8s-1.81-.64-2.72-.93a9.17,9.17,0,0,0-2.68-.42,3.39,3.39,0,0,0-2.07.6,3.5,3.5,0,0,0-1.17,2l1.53-.06,1.3,0a19.24,19.24,0,0,1,2.12.12,23.61,23.61,0,0,1,2.56.42,21.32,21.32,0,0,1-.9,4.54A19,19,0,0,1,16,60a11.92,11.92,0,0,1-2.79,3.24A5.33,5.33,0,0,1,9.9,64.45a5.21,5.21,0,0,1-4.3-2.29,10.4,10.4,0,0,1-1.73-6.38,24,24,0,0,1,.9-6.28,36.44,36.44,0,0,1,6-12.24,20.23,20.23,0,0,1,4.05-4.14,6.88,6.88,0,0,1,4.07-1.55,2.63,2.63,0,0,1,2,.65,2.39,2.39,0,0,1,.59,1.64,6.59,6.59,0,0,1-.61,2.59A13,13,0,0,1,19.46,39,6.48,6.48,0,0,1,18,40.6a2.3,2.3,0,0,0,.77.92,1.5,1.5,0,0,0,.81.25,2.77,2.77,0,0,0,2-1A7.23,7.23,0,0,0,23,38.27a9.24,9.24,0,0,0,.54-3.1,6.67,6.67,0,0,0-.48-2.56A4,4,0,0,0,21.55,30.72Zm14.3,23.82a11.87,11.87,0,0,1,.4,1.82c.41,1.62.61,3.23,1.11,4.85A4.16,4.16,0,0,0,38,62.63c.1.2.8,1,1.1.7,0-.1.11-.1.11-.2.1-.4.3-.81.4-1.21a12.13,12.13,0,0,1,1-1.52c.5-.6,1-1.11,1.51-1.62l1.21-.91c.9-.8.4-1.92-.51-2.52a10.27,10.27,0,0,0-1.61-.71,17.64,17.64,0,0,1-1.81-1.11c-.61-.41-1.31-.81-2-1.22-.4-.2-1.61-1.21-2-.8-.1.1.1.7.1,1A14.72,14.72,0,0,0,35.85,54.54ZM32.92,60.8a3.75,3.75,0,0,1-2.4,1.1,1.9,1.9,0,0,1-1.5-.8,5.21,5.21,0,0,1-.5-2.5,7.49,7.49,0,0,1,.2-2.1,18.46,18.46,0,0,1,.4-2.3,28.22,28.22,0,0,0,3.8-3.9,39.51,39.51,0,0,0,3.3-4.7,37.69,37.69,0,0,0,2.6-4.8,42.11,42.11,0,0,0,1.7-4.3,11.6,11.6,0,0,0,.6-3.2,13,13,0,0,1-.3-1.3,5.78,5.78,0,0,0-.5-1.4,1,1,0,0,0-.9-.6q-.75,0-2.1,1.5a25.89,25.89,0,0,0-2.9,4.1c-1.1,1.7-2.1,3.6-3.2,5.7s-2,4.2-2.9,6.4a50.48,50.48,0,0,0-2.1,6.2,22,22,0,0,0-.8,5.1,6.71,6.71,0,0,0,.8,3.3A3.06,3.06,0,0,0,29,63.6a6.33,6.33,0,0,0,3.2-1,6.89,6.89,0,0,0,1.3-1.1c.1-.1.9-1,.9-1l-.6-.5Zm-1.6-13.5c.7-1.8,1.5-3.4,2.3-5s1.6-3,2.3-4.3a25.65,25.65,0,0,1,2-3c.5-.7,1-1.1,1.2-1.1s.1.1.2.1.1.2.1.4a10.8,10.8,0,0,1-.5,2.5,25.3,25.3,0,0,1-1.5,3.6c-.6,1.3-1.4,2.7-2.2,4.2a49.41,49.41,0,0,1-2.7,4.2q-1.5,2-3,3.6A53.44,53.44,0,0,1,31.32,47.3Z"/></g></g></svg>