<svg xmlns="http://www.w3.org/2000/svg" viewBox="0 0 22 20"><defs><style>.cls-1{fill:#f6f4f2;}</style></defs><title>Asset 7</title><g id="Layer_2" data-name="Layer 2"><g id="Layer_1-2" data-name="Layer 1"><path class="cls-1" d="M7.28,9.79a8.51,8.51,0,0,1,1.21.81c.2.1.4.3.6.2s.1-.1.21-.1a2.87,2.87,0,0,0,.3-2.22,17.41,17.41,0,0,1,.3-4.55c.1-.81.2-1.52.3-2.33a2.08,2.08,0,0,0,0-1.11c-.1-.5-.5-.5-.8-.4A6.92,6.92,0,0,0,6.58,1.3C5.67,1.91,5,2.61,4.06,3.12c-.71.5-1.51.81-2.32,1.41A4.34,4.34,0,0,0,.13,6.66v.2c.1.1.2.2.3.2A23.84,23.84,0,0,1,7.28,9.79ZM11,2.11c.1.91.1,1.82.2,2.63V7.47c0,.8-.3,2.12.1,2.83.2.4.7.2,1.11,0a23.17,23.17,0,0,1,4.53-2,21,21,0,0,1,3.53-1.21.76.76,0,0,0,.5-.2c.1,0,.1-.1.2-.2.2-.51-.7-1.42-1.11-1.72a10.87,10.87,0,0,0-2.21-1.52c-.81-.5-1.61-.91-2.32-1.31S14.13,1.2,13.43.79c-.41-.2-.81-.4-1.31-.6-.31-.1-1-.31-1.21-.1s-.1.5-.1.7C10.91,1.2,10.91,1.7,11,2.11Zm6.14,16.37a13,13,0,0,1-1.71-1.61l-.5-.51a4.13,4.13,0,0,1-.71-.81,6.81,6.81,0,0,0-2.62-1.82,1.43,1.43,0,0,0-1.61.51,13.8,13.8,0,0,1-1.21,1.21A20.06,20.06,0,0,0,5,18.79a2.09,2.09,0,0,0-.4.6c-.1.21-.2.31.1.41a3.47,3.47,0,0,0,1,.1c1.41-.2,2.92-.2,4.33-.3l2.32.1a19.83,19.83,0,0,0,2.41.3A5.75,5.75,0,0,0,16,19.9c.21,0,1.31-.3,1.31-.51a.35.35,0,0,0,.1-.2V19A.56.56,0,0,0,17.15,18.48ZM21.38,7.26a1.86,1.86,0,0,0-1,.31l-3.73,2c-.71.4-5.34,2.22-3.63,3.54a13,13,0,0,1,2.72,2.62c.61.81,1,2,1.92,2.53a.6.6,0,0,0,.4.1.22.22,0,0,0,.2-.2,6.33,6.33,0,0,0,1.21-2.63c.2-.4.3-.81.5-1.21l1-3.13c.2-.41.3-.81.5-1.22C22.09,8.78,22.29,7.36,21.38,7.26ZM6.78,15.05,8,14.14c.9-.81.4-1.92-.51-2.53a11.29,11.29,0,0,0-1.61-.71A17.64,17.64,0,0,1,4.06,9.79C3.45,9.39,2.75,9,2,8.58c-.4-.2-1.61-1.22-2-.81-.1.1.1.71.1,1a14.43,14.43,0,0,0,.4,2,11.87,11.87,0,0,1,.4,1.82c.41,1.62.61,3.24,1.11,4.85a4.16,4.16,0,0,0,.61,1.42c.1.2.8,1,1.11.71,0-.11.1-.11.1-.21.1-.4.3-.81.4-1.21a12.9,12.9,0,0,1,1-1.52A21.46,21.46,0,0,1,6.78,15.05Z"/></g></g></svg>